<?xml version="1.0" standalone="no"?>
<!DOCTYPE svg PUBLIC "-//W3C//DTD SVG 20010904//EN"
 "http://www.w3.org/TR/2001/REC-SVG-20010904/DTD/svg10.dtd">
<svg version="1.0" xmlns="http://www.w3.org/2000/svg"
 width="16.000000pt" height="16.000000pt" viewBox="0 0 16.000000 16.000000"
 preserveAspectRatio="xMidYMid meet">
<metadata>
Created by potrace 1.11, written by Peter Selinger 2001-2013
</metadata>
<g transform="translate(0.000000,16.000000) scale(0.008377,-0.008377)"
fill="#000000" stroke="none">
<path d="M1697 1393 c-1 0 -69 -4 -152 -8 -82 -4 -175 -8 -205 -10 -124 -8
-353 -20 -570 -30 -85 -4 -175 -8 -200 -10 -25 -2 -110 -7 -190 -11 -80 -3
-158 -8 -175 -9 -16 -2 -63 -3 -104 -4 l-73 -1 6 -137 c16 -355 27 -559 31
-581 2 -9 4 -21 4 -26 1 -5 7 -4 14 1 6 6 54 9 104 9 51 -1 93 2 93 6 0 4 9 6
19 5 11 0 17 -5 14 -10 -3 -5 4 -3 15 4 22 14 57 5 46 -12 -4 -8 -3 -9 5 -5 6
4 8 12 5 18 -4 6 -1 9 7 6 8 -3 24 -1 37 3 15 6 22 5 22 -4 0 -8 4 -7 10 3 7
11 10 11 10 2 0 -8 5 -10 12 -5 21 13 42 13 50 0 6 -9 8 -9 8 1 0 6 12 12 26
12 17 0 23 -4 18 -13 -6 -9 -5 -9 7 0 12 10 18 10 28 0 10 -9 11 -9 7 3 -5 12
6 15 63 16 39 0 68 -3 65 -7 -2 -4 1 -11 7 -15 7 -4 9 -3 5 4 -3 6 -2 13 3 16
15 10 121 15 116 6 -5 -9 14 -8 30 1 19 11 87 10 80 -1 -3 -5 -1 -10 4 -10 6
0 11 7 11 15 0 9 6 12 15 9 8 -4 12 -11 9 -18 -3 -6 1 -3 9 7 18 22 28 22 21
-1 -5 -16 -5 -16 6 1 6 9 17 17 25 17 8 0 19 -8 25 -17 10 -16 11 -16 6 -1 -3
12 1 16 15 15 10 -1 19 -6 19 -12 0 -5 5 -3 10 5 8 13 11 12 23 -4 11 -15 16
-16 22 -6 5 9 4 11 -3 6 -7 -4 -12 -1 -12 6 0 16 62 19 72 4 5 -7 8 -6 8 3 0
11 4 9 15 -5 13 -16 14 -16 9 -1 -5 12 -1 17 14 17 11 0 23 -6 25 -12 4 -10 6
-10 6 0 1 6 12 12 25 12 13 0 27 -6 29 -12 4 -9 6 -7 6 3 1 20 41 19 67 -1 17
-14 18 -13 7 1 -11 14 -9 16 17 17 17 0 30 -5 30 -11 0 -8 3 -7 9 2 6 9 21 12
45 9 20 -2 37 1 40 7 2 7 10 6 24 -2 16 -10 22 -10 26 0 5 9 7 9 12 0 3 -7 10
-13 15 -13 6 0 7 5 3 11 -5 8 6 10 35 7 24 -2 41 1 41 7 0 7 3 7 8 0 8 -12 53
-15 46 -3 -3 4 2 8 11 8 9 0 14 -4 10 -9 -3 -5 0 -13 6 -17 8 -4 9 -3 5 5 -4
6 0 14 8 17 16 6 16 16 1 259 -2 44 -7 134 -10 200 -4 66 -8 145 -10 175 -2
30 -4 65 -4 78 -1 22 -4 23 -77 20 -41 -2 -76 -4 -77 -5z"/>
<path d="M825 590 c-3 -6 1 -7 9 -4 18 7 21 14 7 14 -6 0 -13 -4 -16 -10z"/>
<path d="M553 575 c0 -8 4 -12 9 -9 5 3 6 10 3 15 -9 13 -12 11 -12 -6z"/>
</g>
</svg>
